<svg width="141" height="71" viewBox="0 0 141 71" fill="none" xmlns="http://www.w3.org/2000/svg">
<path d="M61.649 47.5907V18.9524H74.889C79.2332 18.9524 81.4053 21.1383 81.4053 25.5102V28.2495C81.4053 29.1902 81.1286 29.9927 80.5752 30.6568L79.1225 32.4L80.8657 33.8526C81.7788 34.5997 82.2354 35.7065 82.2354 37.173V41.0329C82.2354 45.4048 80.0633 47.5907 75.7191 47.5907H61.649ZM65.841 43.7723H75.6776C77.2548 43.7723 78.0434 42.9975 78.0434 41.448V36.924C78.0434 35.3468 77.2548 34.5582 75.6776 34.5582H65.841V43.7723ZM65.841 30.7398H74.8475C76.4247 30.7398 77.2133 29.9512 77.2133 28.374V25.0951C77.2133 23.5456 76.4247 22.7708 74.8475 22.7708H65.841V30.7398ZM88.0661 41.0329V25.5102C88.0661 21.1383 90.2382 18.9524 94.5824 18.9524H104.211C108.556 18.9524 110.728 21.1383 110.728 25.5102V41.0329C110.728 45.4048 108.556 47.5907 104.211 47.5907H94.5824C90.2382 47.5907 88.0661 45.4048 88.0661 41.0329ZM92.2581 41.448C92.2581 42.9975 93.0467 43.7723 94.6239 43.7723H104.17C105.747 43.7723 106.536 42.9975 106.536 41.448V25.0951C106.536 23.5456 105.747 22.7708 104.17 22.7708H94.6239C93.0467 22.7708 92.2581 23.5456 92.2581 25.0951V41.448ZM115.175 46.6776L124.513 32.8565L115.714 19.8655L116.171 18.9524H119.823L126.838 29.5361L133.852 18.9524H137.546L137.961 19.8655L129.204 32.8565L138.501 46.6776L138.044 47.5907H134.392L126.838 36.1769L119.284 47.5907H115.631L115.175 46.6776Z" fill="#FDFF9E"/>
<path d="M2.37599 36.4957V7.85743H16.0311C20.3752 7.85743 22.5473 10.0434 22.5473 14.4152V19.0222C22.5473 22.564 21.0946 24.6392 18.1893 25.2479L23.3774 35.5411L22.8793 36.4957H19.3099L13.7483 25.5385H6.56797V36.4957H2.37599ZM6.56797 21.72H15.9896C17.5667 21.72 18.3553 20.9314 18.3553 19.3543V14.0001C18.3553 12.4506 17.5667 11.6759 15.9896 11.6759H6.56797V21.72ZM28.5905 29.938V14.4152C28.5905 10.0434 30.7625 7.85743 35.1067 7.85743H44.7358C49.08 7.85743 51.2521 10.0434 51.2521 14.4152V29.938C51.2521 34.3098 49.08 36.4957 44.7358 36.4957H35.1067C30.7625 36.4957 28.5905 34.3098 28.5905 29.938ZM32.7824 30.353C32.7824 31.9025 33.571 32.6773 35.1482 32.6773H44.6943C46.2715 32.6773 47.0601 31.9025 47.0601 30.353V14.0001C47.0601 12.4506 46.2715 11.6759 44.6943 11.6759H35.1482C33.571 11.6759 32.7824 12.4506 32.7824 14.0001V30.353Z" fill="#FDFF9E"/>
<path d="M60.5181 10.5907L51.4404 48.4144" stroke="#FDFF9E" stroke-width="3.0259" stroke-linecap="round"/>
<circle cx="95.8201" cy="31.7719" r="1.51295" fill="#FDFF9E"/>
<circle cx="102.376" cy="31.7719" r="1.51295" fill="#FDFF9E"/>
<path d="M95.3159 35.3021C95.3159 35.3021 96.0724 38.0759 99.3505 38.0759C102.629 38.0759 103.133 35.3021 103.133 35.3021" stroke="#FDFF9E" stroke-width="1.51295" stroke-linecap="round"/>
<path d="M6.81402 61.7745L8.01191 63.4403H7.02927L5.93433 61.8962H4.92362V63.4403H4.14687V58.864H5.8501C6.54263 58.864 7.03863 58.9826 7.3381 59.2196C7.64381 59.4505 7.79666 59.8279 7.79666 60.352C7.79666 61.1069 7.46911 61.5811 6.81402 61.7745ZM5.87818 61.2036C6.30867 61.2036 6.60502 61.1381 6.76723 61.0071C6.92944 60.8761 7.01055 60.6546 7.01055 60.3427C7.01055 60.0432 6.92944 59.8404 6.76723 59.7344C6.60502 59.6221 6.31491 59.5659 5.8969 59.5659H4.92362V61.2036H5.87818ZM13.2099 59.4536C12.7544 59.4536 12.3707 59.6158 12.0588 59.9402C11.7468 60.2647 11.5908 60.6577 11.5908 61.1194C11.5908 61.5811 11.7468 61.9742 12.0588 62.2986C12.3707 62.6168 12.7544 62.7759 13.2099 62.7759C13.6653 62.7759 14.049 62.6168 14.3609 62.2986C14.6729 61.9742 14.8289 61.5811 14.8289 61.1194C14.8289 60.6577 14.6729 60.2647 14.3609 59.9402C14.049 59.6158 13.6653 59.4536 13.2099 59.4536ZM13.2099 63.4871C12.5236 63.4871 11.9496 63.2625 11.4879 62.8133C11.0262 62.3578 10.7954 61.7932 10.7954 61.1194C10.7954 60.4456 11.0262 59.8841 11.4879 59.4349C11.9496 58.9794 12.5236 58.7517 13.2099 58.7517C13.8961 58.7517 14.4701 58.9794 14.9318 59.4349C15.3935 59.8841 15.6243 60.4456 15.6243 61.1194C15.6243 61.7932 15.3904 62.3547 14.9225 62.8039C14.4545 63.2594 13.8837 63.4871 13.2099 63.4871ZM18.7786 63.4403V58.864H20.5567C21.1993 58.864 21.6361 59.0013 21.8669 59.2758C22.0728 59.5066 22.1757 59.7718 22.1757 60.0713C22.1757 60.4331 22.0634 60.7014 21.8388 60.8761C21.764 60.9322 21.6517 60.9946 21.5019 61.0633C21.7889 61.1257 22.0135 61.2535 22.1757 61.447C22.3442 61.6404 22.4284 61.8806 22.4284 62.1676C22.4284 62.5294 22.2974 62.832 22.0354 63.0753C21.7796 63.3186 21.3616 63.4403 20.7813 63.4403H18.7786ZM19.5554 60.7638H20.5287C21.0902 60.7638 21.3709 60.5735 21.3709 60.1929C21.3709 59.9746 21.3023 59.8186 21.165 59.725C21.034 59.6252 20.825 59.5753 20.538 59.5753H19.5554V60.7638ZM19.5554 62.7291H20.7626C21.0621 62.7291 21.2836 62.6823 21.4271 62.5887C21.5706 62.4889 21.6423 62.3204 21.6423 62.0833C21.6423 61.6778 21.3179 61.475 20.669 61.475H19.5554V62.7291ZM27.6909 59.4536C27.2355 59.4536 26.8518 59.6158 26.5398 59.9402C26.2279 60.2647 26.0719 60.6577 26.0719 61.1194C26.0719 61.5811 26.2279 61.9742 26.5398 62.2986C26.8518 62.6168 27.2355 62.7759 27.6909 62.7759C28.1464 62.7759 28.5301 62.6168 28.842 62.2986C29.1539 61.9742 29.3099 61.5811 29.3099 61.1194C29.3099 60.6577 29.1539 60.2647 28.842 59.9402C28.5301 59.6158 28.1464 59.4536 27.6909 59.4536ZM27.6909 63.4871C27.0046 63.4871 26.4306 63.2625 25.969 62.8133C25.5073 62.3578 25.2764 61.7932 25.2764 61.1194C25.2764 60.4456 25.5073 59.8841 25.969 59.4349C26.4306 58.9794 27.0046 58.7517 27.6909 58.7517C28.3772 58.7517 28.9512 58.9794 29.4129 59.4349C29.8746 59.8841 30.1054 60.4456 30.1054 61.1194C30.1054 61.7932 29.8714 62.3547 29.4035 62.8039C28.9356 63.2594 28.3647 63.4871 27.6909 63.4871ZM34.991 59.5659V63.4403H34.2142V59.5659H32.8292V58.864H36.376V59.5659H34.991ZM39.401 58.864H40.1777V63.4403H39.401V58.864ZM46.9969 62.1769L47.4929 62.6823C47.0188 63.2251 46.4323 63.4965 45.7335 63.4965C45.041 63.4965 44.4639 63.275 44.0022 62.832C43.5468 62.3828 43.3191 61.8182 43.3191 61.1381C43.3191 60.4518 43.553 59.8841 44.0209 59.4349C44.4889 58.9794 45.0785 58.7517 45.7897 58.7517C46.4885 58.7517 47.078 59.0138 47.5584 59.5378L47.0718 60.0713C46.8534 59.8591 46.6476 59.7125 46.4541 59.6314C46.2607 59.5503 46.033 59.5098 45.771 59.5098C45.3031 59.5098 44.91 59.6595 44.5918 59.959C44.2799 60.2584 44.1239 60.639 44.1239 61.1007C44.1239 61.5561 44.2799 61.943 44.5918 62.2611C44.9038 62.5793 45.275 62.7384 45.7055 62.7384C45.9675 62.7384 46.1921 62.6948 46.3793 62.6074C46.5727 62.5201 46.7786 62.3766 46.9969 62.1769ZM51.2374 60.0151C51.2374 60.2085 51.3091 60.3489 51.4526 60.4362C51.5961 60.5423 51.9018 60.6515 52.3697 60.7638C52.8626 60.8823 53.2214 61.0445 53.446 61.2504C53.6768 61.4563 53.7922 61.7527 53.7922 62.1395C53.7922 62.545 53.6394 62.8726 53.3337 63.1221C53.0342 63.3717 52.6411 63.4965 52.1545 63.4965C51.4495 63.4965 50.8131 63.2469 50.2454 62.7478L50.732 62.1676C51.2062 62.5731 51.6866 62.7759 52.1732 62.7759C52.4165 62.7759 52.6131 62.7228 52.7628 62.6168C52.9125 62.5045 52.9874 62.361 52.9874 62.1863C52.9874 62.0116 52.9188 61.8743 52.7815 61.7745C52.6505 61.6747 52.4134 61.5842 52.0703 61.5031C51.4776 61.3659 51.0658 61.2036 50.835 61.0165C50.5667 60.8106 50.4325 60.4955 50.4325 60.0713C50.4325 59.6595 50.5823 59.3382 50.8817 59.1073C51.1812 58.8703 51.5649 58.7517 52.0328 58.7517C52.663 58.7517 53.2026 58.9358 53.6518 59.3039L53.2401 59.8841C53.1028 59.7593 52.9188 59.6595 52.6879 59.5846C52.4571 59.5035 52.2294 59.463 52.0048 59.463C51.7739 59.463 51.5867 59.5129 51.4433 59.6127C51.306 59.7063 51.2374 59.8404 51.2374 60.0151ZM61.6844 59.5846V60.8387H63.7152V61.5499H61.6844V63.4403H60.9076V58.864H63.9585L63.9491 59.5846H61.6844ZM69.1639 59.4536C68.7085 59.4536 68.3248 59.6158 68.0128 59.9402C67.7009 60.2647 67.5449 60.6577 67.5449 61.1194C67.5449 61.5811 67.7009 61.9742 68.0128 62.2986C68.3248 62.6168 68.7085 62.7759 69.1639 62.7759C69.6194 62.7759 70.0031 62.6168 70.315 62.2986C70.627 61.9742 70.7829 61.5811 70.7829 61.1194C70.7829 60.6577 70.627 60.2647 70.315 59.9402C70.0031 59.6158 69.6194 59.4536 69.1639 59.4536ZM69.1639 63.4871C68.4776 63.4871 67.9037 63.2625 67.442 62.8133C66.9803 62.3578 66.7495 61.7932 66.7495 61.1194C66.7495 60.4456 66.9803 59.8841 67.442 59.4349C67.9037 58.9794 68.4776 58.7517 69.1639 58.7517C69.8502 58.7517 70.4242 58.9794 70.8859 59.4349C71.3476 59.8841 71.5784 60.4456 71.5784 61.1194C71.5784 61.7932 71.3445 62.3547 70.8765 62.8039C70.4086 63.2594 69.8377 63.4871 69.1639 63.4871ZM77.3999 61.7745L78.5977 63.4403H77.6151L76.5202 61.8962H75.5094V63.4403H74.7327V58.864H76.4359C77.1285 58.864 77.6245 58.9826 77.9239 59.2196C78.2296 59.4505 78.3825 59.8279 78.3825 60.352C78.3825 61.1069 78.0549 61.5811 77.3999 61.7745ZM76.464 61.2036C76.8945 61.2036 77.1908 61.1381 77.3531 61.0071C77.5153 60.8761 77.5964 60.6546 77.5964 60.3427C77.5964 60.0432 77.5153 59.8404 77.3531 59.7344C77.1908 59.6221 76.9007 59.5659 76.4827 59.5659H75.5094V61.2036H76.464ZM88.8782 58.864V59.5846H86.4357V60.8012H88.6255V61.4844H86.4357V62.7103H88.9531V63.4403H85.6589V58.864H88.8782ZM94.2063 63.4403H93.3453L91.5017 58.864H92.372L93.7758 62.2799L95.1889 58.864H96.0499L94.2063 63.4403ZM102.1 58.864V59.5846H99.6579V60.8012H101.848V61.4844H99.6579V62.7103H102.175V63.4403H98.8811V58.864H102.1ZM108.009 61.7745L109.207 63.4403H108.224L107.129 61.8962H106.118V63.4403H105.342V58.864H107.045C107.737 58.864 108.233 58.9826 108.533 59.2196C108.838 59.4505 108.991 59.8279 108.991 60.352C108.991 61.1069 108.664 61.5811 108.009 61.7745ZM107.073 61.2036C107.503 61.2036 107.8 61.1381 107.962 61.0071C108.124 60.8761 108.205 60.6546 108.205 60.3427C108.205 60.0432 108.124 59.8404 107.962 59.7344C107.8 59.6221 107.51 59.5659 107.092 59.5659H106.118V61.2036H107.073ZM114.086 63.4403H113.3V61.6341L111.597 58.864H112.449L113.693 60.9416L114.947 58.864H115.79L114.086 61.6341V63.4403ZM120.67 59.4536C120.214 59.4536 119.831 59.6158 119.519 59.9402C119.207 60.2647 119.051 60.6577 119.051 61.1194C119.051 61.5811 119.207 61.9742 119.519 62.2986C119.831 62.6168 120.214 62.7759 120.67 62.7759C121.125 62.7759 121.509 62.6168 121.821 62.2986C122.133 61.9742 122.289 61.5811 122.289 61.1194C122.289 60.6577 122.133 60.2647 121.821 59.9402C121.509 59.6158 121.125 59.4536 120.67 59.4536ZM120.67 63.4871C119.984 63.4871 119.41 63.2625 118.948 62.8133C118.486 62.3578 118.255 61.7932 118.255 61.1194C118.255 60.4456 118.486 59.8841 118.948 59.4349C119.41 58.9794 119.984 58.7517 120.67 58.7517C121.356 58.7517 121.93 58.9794 122.392 59.4349C122.854 59.8841 123.084 60.4456 123.084 61.1194C123.084 61.7932 122.85 62.3547 122.383 62.8039C121.915 63.2594 121.344 63.4871 120.67 63.4871ZM129.673 58.864H130.441V63.4403H129.608L127.015 60.0993V63.4403H126.239V58.864H127.015L129.673 62.2799V58.864ZM137.115 58.864V59.5846H134.673V60.8012H136.862V61.4844H134.673V62.7103H137.19V63.4403H133.896V58.864H137.115Z" fill="#0A6C85"/>
</svg>
