<svg width="216" height="85" viewBox="0 0 216 85" fill="none" xmlns="http://www.w3.org/2000/svg">
<path d="M94.878 74.2991V30.2245H115.254C121.94 30.2245 125.283 33.5887 125.283 40.317V44.5328C125.283 45.9806 124.857 47.2156 124.006 48.2376L121.77 50.9204L124.453 53.1561C125.858 54.3058 126.561 56.0092 126.561 58.2662V64.2066C126.561 70.9349 123.218 74.2991 116.532 74.2991H94.878ZM101.329 68.4225H116.468C118.895 68.4225 120.109 67.2301 120.109 64.8454V57.8829C120.109 55.4556 118.895 54.242 116.468 54.242H101.329V68.4225ZM101.329 48.3654H115.191C117.618 48.3654 118.832 47.1517 118.832 44.7244V39.6782C118.832 37.2935 117.618 36.1011 115.191 36.1011H101.329V48.3654ZM135.534 64.2066V40.317C135.534 33.5887 138.877 30.2245 145.563 30.2245H160.382C167.068 30.2245 170.411 33.5887 170.411 40.317V64.2066C170.411 70.9349 167.068 74.2991 160.382 74.2991H145.563C138.877 74.2991 135.534 70.9349 135.534 64.2066ZM141.986 64.8454C141.986 67.2301 143.199 68.4225 145.627 68.4225H160.318C162.745 68.4225 163.959 67.2301 163.959 64.8454V39.6782C163.959 37.2935 162.745 36.1011 160.318 36.1011H145.627C143.199 36.1011 141.986 37.2935 141.986 39.6782V64.8454ZM177.255 72.8938L191.627 51.623L178.085 31.6298L178.788 30.2245H184.409L195.204 46.5129L205.999 30.2245H211.684L212.323 31.6298L198.845 51.623L213.153 72.8938L212.451 74.2991H206.829L195.204 56.7331L183.579 74.2991H177.957L177.255 72.8938Z" fill="#FDFF9E"/>
<path d="M5.0114 57.2238V13.1493H26.0267C32.7124 13.1493 36.0552 16.5134 36.0552 23.2417V30.332C36.0552 35.7828 33.8195 38.9766 29.3482 39.9134L37.3327 55.7547L36.5662 57.2238H31.0729L22.5135 40.3605H11.4629V57.2238H5.0114ZM11.4629 34.4839H25.9628C28.3901 34.4839 29.6037 33.2703 29.6037 30.843V22.603C29.6037 20.2183 28.3901 19.0259 25.9628 19.0259H11.4629V34.4839ZM45.3557 47.1314V23.2417C45.3557 16.5134 48.6985 13.1493 55.3842 13.1493H70.2035C76.8892 13.1493 80.2321 16.5134 80.2321 23.2417V47.1314C80.2321 53.8597 76.8892 57.2238 70.2035 57.2238H55.3842C48.6985 57.2238 45.3557 53.8597 45.3557 47.1314ZM51.8072 47.7702C51.8072 50.1549 53.0208 51.3472 55.4481 51.3472H70.1396C72.5669 51.3472 73.7806 50.1549 73.7806 47.7702V22.603C73.7806 20.2183 72.5669 19.0259 70.1396 19.0259H55.4481C53.0208 19.0259 51.8072 20.2183 51.8072 22.603V47.7702Z" fill="#FDFF9E"/>
<path d="M93.1376 16.2991L79.167 74.5101" stroke="#FDFF9E" stroke-width="4.65688" stroke-linecap="round"/>
<circle cx="147.468" cy="48.8973" r="2.32844" fill="#FDFF9E"/>
<circle cx="157.558" cy="48.8973" r="2.32844" fill="#FDFF9E"/>
<path d="M146.692 54.3303C146.692 54.3303 147.856 58.5991 152.901 58.5991C157.946 58.5991 158.722 54.3303 158.722 54.3303" stroke="#FDFF9E" stroke-width="2.32844" stroke-linecap="round"/>
</svg>
